<svg width="255" height="37" viewBox="0 0 255 37" fill="none" xmlns="http://www.w3.org/2000/svg">
<path d="M8.256 36.48C7.008 36.48 5.76 36.368 4.512 36.144C3.296 35.952 2.08 35.648 0.864 35.232V31.536C2.048 32.016 3.216 32.384 4.368 32.64C5.52 32.896 6.704 33.024 7.92 33.024C10.096 33.024 11.776 32.576 12.96 31.68C14.176 30.784 14.784 29.36 14.784 27.408C14.784 26.384 14.576 25.472 14.16 24.672C13.776 23.84 13.104 23.04 12.144 22.272C11.216 21.504 9.904 20.656 8.208 19.728C6.128 18.544 4.48 17.44 3.264 16.416C2.08 15.392 1.232 14.304 0.72 13.152C0.24 11.968 0 10.624 0 9.12C0 6.144 0.864 3.968 2.592 2.592C4.352 1.184 7.104 0.480002 10.848 0.480002C11.968 0.480002 13.088 0.544002 14.208 0.672C15.36 0.8 16.56 1.008 17.808 1.296V11.52H13.968V2.784L15.504 4.512C14.64 4.32 13.824 4.176 13.056 4.08C12.32 3.984 11.552 3.936 10.752 3.936C8.448 3.936 6.736 4.368 5.616 5.232C4.496 6.064 3.936 7.376 3.936 9.168C3.936 10.16 4.128 11.072 4.512 11.904C4.928 12.704 5.616 13.504 6.576 14.304C7.568 15.072 8.896 15.92 10.56 16.848C12.608 18 14.224 19.104 15.408 20.16C16.592 21.184 17.44 22.288 17.952 23.472C18.464 24.624 18.72 25.968 18.72 27.504C18.72 30.512 17.84 32.768 16.08 34.272C14.352 35.744 11.744 36.48 8.256 36.48ZM36.96 36.48C34.144 36.48 32.112 35.904 30.864 34.752C29.648 33.6 29.04 31.664 29.04 28.944V14.4H22.8V11.04H29.04V2.88H32.88V11.04H42.48V14.4H32.88V28.128C32.88 30.016 33.216 31.328 33.888 32.064C34.592 32.768 35.872 33.12 37.728 33.12C38.624 33.12 39.456 33.056 40.224 32.928C41.024 32.768 41.776 32.56 42.48 32.304V35.664C41.584 35.952 40.672 36.16 39.744 36.288C38.848 36.416 37.92 36.48 36.96 36.48ZM58.032 36.48C54.832 36.48 52.32 35.76 50.496 34.32C48.672 32.848 47.76 30.848 47.76 28.32C47.76 25.664 48.768 23.664 50.784 22.32C52.832 20.976 55.84 20.304 59.808 20.304H64.128V23.424H59.856C57.072 23.424 54.992 23.824 53.616 24.624C52.272 25.424 51.6 26.64 51.6 28.272C51.6 29.808 52.16 31.024 53.28 31.92C54.4 32.816 55.936 33.264 57.888 33.264C58.912 33.264 59.904 33.136 60.864 32.88C61.856 32.624 62.688 32.288 63.36 31.872L62.304 34.08V19.776C62.304 18.144 62.176 16.896 61.92 16.032C61.664 15.168 61.152 14.592 60.384 14.304C59.648 13.984 58.56 13.824 57.12 13.824C56.192 13.824 55.296 13.872 54.432 13.968C53.568 14.064 52.704 14.224 51.84 14.448C50.976 14.64 50.064 14.912 49.104 15.264V11.952C50.224 11.504 51.504 11.168 52.944 10.944C54.416 10.688 55.936 10.56 57.504 10.56C59.68 10.56 61.392 10.832 62.64 11.376C63.888 11.92 64.768 12.864 65.28 14.208C65.792 15.52 66.048 17.344 66.048 19.68V34.944C65.056 35.424 63.824 35.792 62.352 36.048C60.88 36.336 59.44 36.48 58.032 36.48ZM75.552 13.2C77.12 12.656 78.8 12.192 80.592 11.808C82.416 11.424 84.208 11.12 85.968 10.896C87.76 10.672 89.408 10.56 90.912 10.56V13.92C89.6 13.92 88.208 14.016 86.736 14.208C85.264 14.368 83.808 14.608 82.368 14.928C80.928 15.248 79.616 15.632 78.432 16.08L79.392 14.256V36H75.552V13.2ZM97.104 36V0.960002H100.944V16.128H101.136L111.936 0.960002H116.304L104.544 17.472L116.304 36H111.984L101.136 18.816H100.944V36H97.104ZM129.984 36V14.4H121.344V11.04H133.824V36H129.984ZM131.136 6.528C130.112 6.528 129.28 6.24 128.64 5.664C128.032 5.056 127.728 4.256 127.728 3.264C127.728 2.24 128.032 1.44 128.64 0.864C129.28 0.288 130.112 0 131.136 0C132.16 0 132.976 0.288 133.584 0.864C134.224 1.44 134.544 2.24 134.544 3.264C134.544 4.256 134.224 5.056 133.584 5.664C132.976 6.24 132.16 6.528 131.136 6.528ZM144.768 36V0.960002H148.512V21.744H148.704L159.504 11.04H164.112L152.208 23.04L164.448 36H159.84L148.704 24.384H148.512V36H144.768ZM177.504 36.48C174.208 36.48 171.776 35.52 170.208 33.6C168.672 31.648 167.904 28.608 167.904 24.48V22.56C167.904 18.432 168.672 15.408 170.208 13.488C171.776 11.536 174.208 10.56 177.504 10.56C180.832 10.56 183.264 11.536 184.8 13.488C186.336 15.408 187.104 18.432 187.104 22.56V24.48C187.104 28.608 186.336 31.648 184.8 33.6C183.264 35.52 180.832 36.48 177.504 36.48ZM177.504 33.12C179.584 33.12 181.056 32.432 181.92 31.056C182.816 29.68 183.264 27.408 183.264 24.24V22.8C183.264 19.632 182.816 17.36 181.92 15.984C181.056 14.608 179.584 13.92 177.504 13.92C175.456 13.92 173.984 14.608 173.088 15.984C172.192 17.36 171.744 19.632 171.744 22.8V24.24C171.744 27.408 172.192 29.68 173.088 31.056C173.984 32.432 175.456 33.12 177.504 33.12ZM201.504 36.48C200.384 36.48 199.472 36.144 198.768 35.472C198.096 34.8 197.76 33.92 197.76 32.832C197.76 31.712 198.096 30.832 198.768 30.192C199.472 29.52 200.384 29.184 201.504 29.184C202.624 29.184 203.52 29.52 204.192 30.192C204.896 30.832 205.248 31.712 205.248 32.832C205.248 33.92 204.896 34.8 204.192 35.472C203.52 36.144 202.624 36.48 201.504 36.48ZM226.032 36.48C222.832 36.48 220.32 35.76 218.496 34.32C216.672 32.848 215.76 30.848 215.76 28.32C215.76 25.664 216.768 23.664 218.784 22.32C220.832 20.976 223.84 20.304 227.808 20.304H232.128V23.424H227.856C225.072 23.424 222.992 23.824 221.616 24.624C220.272 25.424 219.6 26.64 219.6 28.272C219.6 29.808 220.16 31.024 221.28 31.92C222.4 32.816 223.936 33.264 225.888 33.264C226.912 33.264 227.904 33.136 228.864 32.88C229.856 32.624 230.688 32.288 231.36 31.872L230.304 34.08V19.776C230.304 18.144 230.176 16.896 229.92 16.032C229.664 15.168 229.152 14.592 228.384 14.304C227.648 13.984 226.56 13.824 225.12 13.824C224.192 13.824 223.296 13.872 222.432 13.968C221.568 14.064 220.704 14.224 219.84 14.448C218.976 14.64 218.064 14.912 217.104 15.264V11.952C218.224 11.504 219.504 11.168 220.944 10.944C222.416 10.688 223.936 10.56 225.504 10.56C227.68 10.56 229.392 10.832 230.64 11.376C231.888 11.92 232.768 12.864 233.28 14.208C233.792 15.52 234.048 17.344 234.048 19.68V34.944C233.056 35.424 231.824 35.792 230.352 36.048C228.88 36.336 227.44 36.48 226.032 36.48ZM249.984 36V14.4H241.344V11.04H253.824V36H249.984ZM251.136 6.528C250.112 6.528 249.28 6.24 248.64 5.664C248.032 5.056 247.728 4.256 247.728 3.264C247.728 2.24 248.032 1.44 248.64 0.864C249.28 0.288 250.112 0 251.136 0C252.16 0 252.976 0.288 253.584 0.864C254.224 1.44 254.544 2.24 254.544 3.264C254.544 4.256 254.224 5.056 253.584 5.664C252.976 6.24 252.16 6.528 251.136 6.528Z" fill="black"/>
</svg>
